<?xml version="1.0" encoding="utf-8"?>
<svg viewBox="0 -0.956 61.23 66.956" fill="none" xmlns="http://www.w3.org/2000/svg" xmlns:xlink="http://www.w3.org/1999/xlink" xmlns:bx="https://boxy-svg.com">
  <symbol id="logo-symbol-wordmark">
    <path d="M60.7539 14.4034C59.8143 7.41942 53.7273 1.91557 46.5117 0.849066C45.2943 0.668854 40.6819 0.0130005 29.9973 0.0130005H29.9175C19.2299 0.0130005 16.937 0.668854 15.7196 0.849066C8.70488 1.88602 2.29885 6.83152 0.744617 13.8982C-0.00294988 17.3784 -0.0827298 21.2367 0.0561464 24.7759C0.254119 29.8514 0.292531 34.918 0.753482 39.9728C1.07215 43.3305 1.62806 46.6614 2.41704 49.9406C3.89445 55.9969 9.87499 61.0369 15.7344 63.0931C22.0077 65.2374 28.7542 65.5934 35.2184 64.1212C35.9295 63.9558 36.6318 63.7638 37.3252 63.5451C38.8971 63.0459 40.738 62.4875 42.0913 61.5067C42.1099 61.4929 42.1251 61.4751 42.1358 61.4547C42.1466 61.4342 42.1526 61.4116 42.1534 61.3885V56.4903C42.153 56.4687 42.1479 56.4475 42.1383 56.4281C42.1287 56.4088 42.1149 56.3918 42.0979 56.3785C42.0809 56.3652 42.0611 56.3559 42.04 56.3512C42.019 56.3465 41.9971 56.3466 41.9761 56.3514C37.8345 57.3406 33.5905 57.8364 29.3324 57.8286C22.0045 57.8286 20.0336 54.3514 19.4693 52.9038C19.0156 51.6527 18.7275 50.3476 18.6124 49.0218C18.6112 48.9996 18.6153 48.9773 18.6243 48.9569C18.6333 48.9366 18.647 48.9186 18.6643 48.9045C18.6816 48.8904 18.7019 48.8805 18.7237 48.8758C18.7455 48.871 18.7681 48.8715 18.7897 48.8771C22.8622 49.8595 27.037 50.3553 31.2265 50.3542C32.234 50.3542 33.2387 50.3542 34.2463 50.3276C38.4598 50.2094 42.9009 49.9938 47.0465 49.1843C47.1499 49.1636 47.2534 49.1459 47.342 49.1193C53.881 47.8637 60.1038 43.9227 60.7362 33.9431C60.7598 33.5502 60.8189 29.8278 60.8189 29.4201C60.8218 28.0345 61.2651 19.5911 60.7539 14.4034Z" fill="url(#paint0_linear_89_11)"/>
    <defs>
      <linearGradient id="paint0_linear_89_11" x1="30.5" y1="0.0130005" x2="30.5" y2="65.013" gradientUnits="userSpaceOnUse">
        <stop stop-color="#6364FF"/>
        <stop offset="1" stop-color="#563ACC"/>
      </linearGradient>
    </defs>
    <path d="M 25.525 18.095 Q 29.196 14.485 31.985 14.485 Q 35.185 14.485 36.189 16.926 Q 38.999 14.69 42.608 14.69 Q 47.571 14.69 47.571 20.699 Q 47.571 22.053 47.448 24.226 Q 47.428 24.596 47.325 30.42 Q 47.264 33.557 47.161 35.044 Q 47.059 36.531 46.033 37.269 Q 45.008 38.008 43.88 38.008 Q 42.567 38.008 42.014 37.31 Q 41.46 36.613 41.46 34.624 L 41.932 23.734 Q 41.932 20.022 41.111 20.022 Q 40.701 20.022 38.702 21.058 Q 36.702 22.094 36.066 22.586 Q 35.738 24.349 35.595 29.312 Q 35.308 35.588 34.938 36.593 Q 34.569 37.598 33.698 38.202 Q 32.826 38.807 31.821 38.807 Q 30.714 38.807 30.027 38.141 Q 29.34 37.474 29.34 36.552 L 29.627 34.255 Q 29.811 32.696 29.976 29.189 Q 30.242 24.267 30.55 22.299 Q 30.755 21.027 30.693 20.207 Q 27.966 21.601 24.767 25.19 L 23.085 34.685 Q 22.962 35.752 22.019 36.398 Q 21.075 37.044 19.763 37.044 Q 17.568 37.044 17.568 34.48 Q 17.568 33.578 17.794 32.245 L 18.963 24.657 Q 19.414 21.786 19.599 19.899 Q 19.865 16.946 20.993 15.213 Q 22.121 13.48 23.454 13.48 Q 24.541 13.48 25.29 14.249 Q 26.038 15.018 26.038 15.982 Q 26.038 16.249 25.525 18.095 Z M 55.236 30.071 Q 56.999 32.204 60.486 32.204 Q 63.193 32.204 65.305 31.076 Q 67.192 30.071 68.217 30.071 Q 70.022 30.071 70.022 31.63 Q 70.022 34.029 66.781 35.598 Q 63.541 37.167 59.686 37.167 Q 54.948 37.167 52.272 35.044 Q 49.596 32.922 49.596 29.333 Q 49.596 24.308 53.174 19.571 Q 56.753 14.834 62.659 14.834 Q 66.535 14.834 68.699 16.116 Q 70.862 17.397 70.862 19.756 Q 70.862 21.991 69.15 23.519 Q 67.438 25.047 62.618 26.995 Z M 55.605 24.862 L 60.568 22.893 Q 63.275 21.724 65.346 20.535 Q 64.136 19.776 61.921 19.776 Q 58.127 19.776 55.605 24.862 Z" transform="matrix(1.049003, 0, 0, 1, -15.528133, 0)" style="fill: rgb(255, 255, 255); text-transform: lowercase; white-space: pre;"/>
  </symbol>
  <use style="color:#fff" xlink:href="#logo-symbol-wordmark" bx:origin="0 0"/>
</svg>