<?xml version="1.0" encoding="utf-8"?>
<svg viewBox="0 -0.956 311.42 66.956" fill="none" xmlns="http://www.w3.org/2000/svg" xmlns:xlink="http://www.w3.org/1999/xlink" xmlns:bx="https://boxy-svg.com">
  <symbol id="logo-symbol-wordmark">
    <path d="M60.7539 14.4034C59.8143 7.41942 53.7273 1.91557 46.5117 0.849066C45.2943 0.668854 40.6819 0.0130005 29.9973 0.0130005H29.9175C19.2299 0.0130005 16.937 0.668854 15.7196 0.849066C8.70488 1.88602 2.29885 6.83152 0.744617 13.8982C-0.00294988 17.3784 -0.0827298 21.2367 0.0561464 24.7759C0.254119 29.8514 0.292531 34.918 0.753482 39.9728C1.07215 43.3305 1.62806 46.6614 2.41704 49.9406C3.89445 55.9969 9.87499 61.0369 15.7344 63.0931C22.0077 65.2374 28.7542 65.5934 35.2184 64.1212C35.9295 63.9558 36.6318 63.7638 37.3252 63.5451C38.8971 63.0459 40.738 62.4875 42.0913 61.5067C42.1099 61.4929 42.1251 61.4751 42.1358 61.4547C42.1466 61.4342 42.1526 61.4116 42.1534 61.3885V56.4903C42.153 56.4687 42.1479 56.4475 42.1383 56.4281C42.1287 56.4088 42.1149 56.3918 42.0979 56.3785C42.0809 56.3652 42.0611 56.3559 42.04 56.3512C42.019 56.3465 41.9971 56.3466 41.9761 56.3514C37.8345 57.3406 33.5905 57.8364 29.3324 57.8286C22.0045 57.8286 20.0336 54.3514 19.4693 52.9038C19.0156 51.6527 18.7275 50.3476 18.6124 49.0218C18.6112 48.9996 18.6153 48.9773 18.6243 48.9569C18.6333 48.9366 18.647 48.9186 18.6643 48.9045C18.6816 48.8904 18.7019 48.8805 18.7237 48.8758C18.7455 48.871 18.7681 48.8715 18.7897 48.8771C22.8622 49.8595 27.037 50.3553 31.2265 50.3542C32.234 50.3542 33.2387 50.3542 34.2463 50.3276C38.4598 50.2094 42.9009 49.9938 47.0465 49.1843C47.1499 49.1636 47.2534 49.1459 47.342 49.1193C53.881 47.8637 60.1038 43.9227 60.7362 33.9431C60.7598 33.5502 60.8189 29.8278 60.8189 29.4201C60.8218 28.0345 61.2651 19.5911 60.7539 14.4034Z" fill="url(#paint0_linear_89_11)"/>
    <path d="M12.3442 18.3034C12.3442 16.2668 13.9777 14.6194 15.997 14.6194C18.0163 14.6194 19.6497 16.2668 19.6497 18.3034C19.6497 20.34 18.0163 21.9874 15.997 21.9874C13.9777 21.9874 12.3442 20.34 12.3442 18.3034Z" fill="currentColor"/>
    <path d="M 66.148 21.469 L 66.148 38.384 L 59.499 38.384 L 59.499 21.974 C 59.499 18.511 58.058 16.76 55.164 16.76 C 51.975 16.76 50.367 18.848 50.367 22.96 L 50.367 31.95 L 43.769 31.95 L 43.769 22.96 C 43.769 18.835 42.174 16.76 38.971 16.76 C 36.09 16.76 34.637 18.511 34.637 21.974 L 34.637 38.384 L 28 38.384 L 28 21.469 C 28 18.018 28.875 15.268 30.624 13.231 C 32.437 11.195 34.804 10.157 37.737 10.157 C 41.132 10.157 43.717 11.48 45.415 14.114 L 47.074 16.915 L 48.733 14.114 C 50.431 11.48 53.004 10.157 56.412 10.157 C 59.344 10.157 61.711 11.195 63.525 13.231 C 65.274 15.268 66.148 18.005 66.148 21.469 Z M 89.03 29.874 C 90.406 28.409 91.062 26.58 91.062 24.361 C 91.062 22.143 90.406 20.301 89.03 18.9 C 87.705 17.434 86.033 16.734 84.001 16.734 C 81.969 16.734 80.297 17.434 78.972 18.9 C 77.647 20.301 76.991 22.143 76.991 24.361 C 76.991 26.58 77.647 28.422 78.972 29.874 C 80.297 31.275 81.969 31.989 84.001 31.989 C 86.033 31.989 87.705 31.288 89.03 29.874 Z M 91.062 10.832 L 97.609 10.832 L 97.609 37.891 L 91.062 37.891 L 91.062 34.7 C 89.081 37.346 86.342 38.656 82.779 38.656 C 79.216 38.656 76.477 37.307 74.046 34.544 C 71.653 31.781 70.444 28.37 70.444 24.374 C 70.444 20.379 71.666 17.019 74.046 14.256 C 76.489 11.493 79.383 10.092 82.779 10.092 C 86.174 10.092 89.081 11.389 91.062 14.036 L 91.062 10.845 L 91.062 10.832 Z M 119.654 23.868 C 121.583 25.334 122.548 27.384 122.496 29.978 C 122.496 32.741 121.532 34.908 119.551 36.412 C 117.57 37.878 115.178 38.63 112.284 38.63 C 107.049 38.63 103.499 36.464 101.621 32.196 L 107.306 28.785 C 108.065 31.107 109.737 32.3 112.284 32.3 C 114.625 32.3 115.782 31.548 115.782 29.978 C 115.782 28.837 114.265 27.812 111.165 27.008 C 109.995 26.683 109.03 26.359 108.271 26.087 C 107.204 25.659 106.29 25.166 105.532 24.569 C 103.654 23.103 102.689 21.157 102.689 18.667 C 102.689 16.02 103.602 13.906 105.429 12.388 C 107.306 10.819 109.596 10.066 112.335 10.066 C 116.709 10.066 119.898 11.96 121.982 15.8 L 116.4 19.043 C 115.59 17.201 114.213 16.28 112.335 16.28 C 110.355 16.28 109.39 17.032 109.39 18.498 C 109.39 19.64 110.908 20.664 114.008 21.469 C 116.4 22.013 118.278 22.818 119.641 23.855 L 119.654 23.868 Z M 140.477 17.538 L 134.741 17.538 L 134.741 28.798 C 134.741 30.147 135.255 30.964 136.22 31.34 C 136.927 31.613 138.355 31.665 140.49 31.561 L 140.49 37.891 C 136.079 38.436 132.876 37.995 130.998 36.542 C 129.12 35.141 128.207 32.534 128.207 28.811 L 128.207 17.538 L 123.795 17.538 L 123.795 10.832 L 128.207 10.832 L 128.207 5.37 L 134.754 3.256 L 134.754 10.832 L 140.49 10.832 L 140.49 17.538 L 140.477 17.538 Z M 161.352 29.719 C 162.677 28.318 163.333 26.528 163.333 24.361 C 163.333 22.195 162.677 20.418 161.352 19.004 C 160.027 17.603 158.407 16.889 156.426 16.889 C 154.445 16.889 152.825 17.59 151.5 19.004 C 150.227 20.47 149.571 22.247 149.571 24.361 C 149.571 26.476 150.227 28.253 151.5 29.719 C 152.825 31.12 154.445 31.833 156.426 31.833 C 158.407 31.833 160.027 31.133 161.352 29.719 Z M 146.883 34.531 C 144.297 31.768 143.024 28.422 143.024 24.361 C 143.024 20.301 144.297 17.006 146.883 14.243 C 149.468 11.48 152.67 10.079 156.426 10.079 C 160.182 10.079 163.384 11.48 165.97 14.243 C 168.555 17.006 169.88 20.418 169.88 24.361 C 169.88 28.305 168.555 31.768 165.97 34.531 C 163.384 37.294 160.233 38.643 156.426 38.643 C 152.619 38.643 149.468 37.294 146.883 34.531 Z" fill="black" style="pointer-events: none;"/>
    <defs>
      <linearGradient id="paint0_linear_89_11" x1="30.5" y1="0.0130005" x2="30.5" y2="65.013" gradientUnits="userSpaceOnUse">
        <stop stop-color="#6364FF"/>
        <stop offset="1" stop-color="#563ACC"/>
      </linearGradient>
    </defs>
    <path d="M 189.345 17.051 Q 191.868 16.829 192.945 16.829 Q 196.414 16.829 196.043 19.204 Q 195.654 21.653 191.98 21.542 Q 190.811 21.504 188.399 21.709 Q 188.028 23.675 187.582 26.718 Q 186.951 31.097 186.859 31.71 Q 186.32 35.105 185.578 37.09 Q 184.836 39.076 182.814 39.076 Q 181.775 39.076 181.116 38.408 Q 180.457 37.74 180.606 36.719 Q 180.643 36.478 180.717 36.255 Q 181.589 33.602 181.96 31.264 L 183.426 21.987 Q 183.092 22.005 182.183 22.135 Q 181.459 22.228 181.088 22.228 Q 179.956 22.228 179.316 21.569 Q 178.676 20.911 178.862 19.797 Q 179.121 18.072 181.032 17.534 Q 181.886 17.293 184.335 17.218 Q 184.409 16.884 184.91 15.122 Q 186.079 10.984 188.12 8.961 Q 190.681 6.438 195.134 6.438 Q 198.529 6.438 198.14 8.869 Q 197.75 11.281 194.596 11.281 Q 192.351 11.281 191.089 12.858 Q 190.143 14.027 189.493 16.513 Z M 202.017 11.466 Q 202.017 10.186 203.075 9.258 Q 204.133 8.331 205.394 8.331 Q 206.452 8.331 207.194 9.008 Q 207.936 9.685 207.936 10.65 Q 207.936 11.893 206.888 12.849 Q 205.84 13.804 204.522 13.804 Q 203.446 13.804 202.732 13.118 Q 202.017 12.431 202.017 11.466 Z M 200.088 36.682 Q 199.067 36.682 198.455 36.098 Q 197.843 35.513 197.843 34.604 L 198.362 30.819 Q 198.863 26.997 199.698 23.304 Q 200.348 20.577 200.533 19.129 Q 200.682 18.109 201.544 17.376 Q 202.407 16.643 203.502 16.643 Q 204.467 16.643 205.07 17.218 Q 205.673 17.794 205.673 18.721 Q 205.673 19.463 204.856 23.007 Q 204.04 26.551 203.622 29.854 Q 203.205 33.157 202.992 34.27 Q 202.778 35.383 201.953 36.033 Q 201.127 36.682 200.088 36.682 Z M 215.121 18.962 Q 218.256 16.235 221.244 16.235 Q 225.919 16.235 225.919 21.616 Q 225.919 23.082 225.604 25.048 L 225.381 26.384 Q 224.917 29.168 224.917 31.32 Q 224.917 33.843 224.788 34.873 Q 224.658 35.903 223.832 36.673 Q 223.006 37.443 221.856 37.443 Q 219.648 37.443 219.648 35.309 Q 219.648 30.615 219.926 28.416 Q 220.205 26.217 220.854 23.527 Q 221.114 22.488 221.114 22.061 Q 221.114 21.133 220.483 21.133 Q 218.72 21.133 216.735 23.221 Q 214.749 25.308 213.738 27.488 Q 212.727 29.669 212.504 33.027 Q 212.43 34.641 212.207 35.263 Q 211.985 35.884 211.233 36.45 Q 210.482 37.016 209.424 37.016 Q 208.459 37.016 207.838 36.46 Q 207.216 35.903 207.216 35.031 L 207.365 33.027 Q 207.513 30.986 208.552 26.533 Q 209.554 22.414 209.703 20.836 Q 209.851 19.092 210.009 18.165 Q 210.166 17.237 211.011 16.541 Q 211.855 15.845 212.987 15.845 Q 215.399 15.845 215.121 18.74 Z M 243.68 17.441 Q 245.09 10.594 245.693 8.572 Q 246.296 6.549 248.43 6.549 Q 250.527 6.549 250.527 8.553 Q 250.527 9.537 248.783 16.996 Q 247.317 23.156 246.714 27.581 Q 246.111 32.006 246.111 33.491 Q 246.111 34.381 245.962 34.901 Q 245.814 35.42 245.025 36.051 Q 244.237 36.682 243.272 36.682 Q 241.88 36.682 241.398 35.42 Q 238.689 36.942 235.739 36.942 Q 231.842 36.942 229.634 34.678 Q 227.426 32.415 227.426 29.186 Q 227.426 24.343 230.757 20.308 Q 234.087 16.272 239.505 16.272 Q 242.251 16.272 243.68 17.441 Z M 242.4 23.304 Q 241.546 20.985 238.856 20.985 Q 235.405 20.985 233.837 23.341 Q 232.269 25.698 232.269 28.091 Q 232.269 29.836 233.503 31.014 Q 234.737 32.192 236.499 32.192 Q 238.93 32.192 241.324 30.095 Q 241.324 29.446 242.4 23.304 Z M 248.792 36.102 Q 248.792 35.007 249.869 34.116 Q 250.945 33.226 252.262 33.226 Q 253.468 33.226 254.192 33.857 Q 254.916 34.487 254.916 35.415 Q 254.916 36.566 253.849 37.438 Q 252.782 38.31 251.427 38.31 Q 250.333 38.31 249.562 37.642 Q 248.792 36.974 248.792 36.102 Z M 264.98 20.096 Q 268.301 16.83 270.825 16.83 Q 273.719 16.83 274.629 19.038 Q 277.171 17.016 280.436 17.016 Q 284.926 17.016 284.926 22.453 Q 284.926 23.677 284.815 25.644 Q 284.797 25.978 284.704 31.247 Q 284.648 34.086 284.555 35.432 Q 284.463 36.777 283.535 37.445 Q 282.607 38.113 281.587 38.113 Q 280.399 38.113 279.898 37.482 Q 279.397 36.851 279.397 35.051 L 279.824 25.199 Q 279.824 21.84 279.082 21.84 Q 278.711 21.84 276.902 22.777 Q 275.092 23.714 274.517 24.16 Q 274.22 25.755 274.09 30.246 Q 273.831 35.923 273.497 36.832 Q 273.163 37.742 272.374 38.289 Q 271.586 38.836 270.676 38.836 Q 269.674 38.836 269.053 38.233 Q 268.431 37.63 268.431 36.795 L 268.691 34.717 Q 268.858 33.307 269.007 30.134 Q 269.248 25.681 269.526 23.9 Q 269.712 22.749 269.656 22.007 Q 267.188 23.269 264.294 26.516 L 262.772 35.107 Q 262.661 36.072 261.807 36.656 Q 260.954 37.241 259.766 37.241 Q 257.781 37.241 257.781 34.921 Q 257.781 34.105 257.985 32.899 L 259.043 26.034 Q 259.451 23.436 259.618 21.729 Q 259.859 19.057 260.88 17.489 Q 261.9 15.921 263.106 15.921 Q 264.09 15.921 264.767 16.617 Q 265.444 17.313 265.444 18.185 Q 265.444 18.426 264.98 20.096 Z M 291.857 30.932 Q 293.453 32.862 296.607 32.862 Q 299.056 32.862 300.967 31.841 Q 302.674 30.932 303.602 30.932 Q 305.235 30.932 305.235 32.342 Q 305.235 34.513 302.303 35.933 Q 299.372 37.352 295.883 37.352 Q 291.597 37.352 289.176 35.432 Q 286.754 33.511 286.754 30.264 Q 286.754 25.718 289.992 21.432 Q 293.23 17.146 298.574 17.146 Q 302.081 17.146 304.038 18.306 Q 305.996 19.465 305.996 21.599 Q 305.996 23.621 304.446 25.004 Q 302.897 26.386 298.537 28.149 Z M 292.191 26.219 L 296.681 24.438 Q 299.13 23.38 301.004 22.304 Q 299.91 21.618 297.906 21.618 Q 294.473 21.618 292.191 26.219 Z" transform="matrix(1.049003, 0, 0, 1, -15.528133, 0)" style="fill: rgb(0, 0, 0); text-transform: lowercase; white-space: pre;"/>
  </symbol>
  <use style="color:#fff" xlink:href="#logo-symbol-wordmark" bx:origin="0 0"/>
</svg>